<svg width="32" height="26" viewBox="0 0 32 26" fill="none" xmlns="http://www.w3.org/2000/svg">
    <path d="M7 7h6" stroke="#b0776c" stroke-width="2" stroke-linecap="round" stroke-linejoin="round"/>
    <path d="M29.25 8.5h-3.904C22.67 8.5 20.5 10.515 20.5 13s2.17 4.5 4.846 4.5h3.904c.125 0 .188 0 .24-.003.81-.05 1.454-.648 1.507-1.399.003-.049.003-.107.003-.223v-5.75c0-.116 0-.174-.003-.223-.053-.751-.698-1.35-1.507-1.399-.052-.003-.115-.003-.24-.003z" stroke="#b0776c" stroke-width="2"/>
    <path d="M29.448 8.5c-.117-2.808-.493-4.53-1.705-5.743C25.985 1 23.157 1 17.5 1H13C7.343 1 4.515 1 2.757 2.757 1 4.515 1 7.343 1 13s0 8.485 1.757 10.243C4.515 25 7.343 25 13 25h4.5c5.657 0 8.485 0 10.243-1.757 1.212-1.213 1.588-2.934 1.705-5.743" stroke="#b0776c" stroke-width="2"/>
    <path d="M24.987 13H25" stroke="#b0776c" stroke-width="2" stroke-linecap="round" stroke-linejoin="round"/>
</svg>
